<svg width="9" height="15" viewBox="0 0 9 15" fill="none" xmlns="http://www.w3.org/2000/svg">
<path d="M5.96252 5.14946V10.4101C5.95643 10.7948 5.79903 11.1617 5.52428 11.4316C5.24953 11.7015 4.87947 11.8527 4.49395 11.8527C4.10844 11.8527 3.73837 11.7015 3.46363 11.4316C3.18888 11.1617 3.03148 10.7948 3.02539 10.4101L3.02063 3.51475C3.01663 3.18596 3.07807 2.85964 3.20139 2.55472C3.3247 2.24979 3.50744 1.97233 3.73901 1.73842C3.97058 1.5045 4.24637 1.31878 4.5504 1.19202C4.85442 1.06527 5.18064 1 5.51013 1C5.83962 1 6.16584 1.06527 6.46986 1.19202C6.77389 1.31878 7.04968 1.5045 7.28125 1.73842C7.51282 1.97233 7.69556 2.24979 7.81887 2.55472C7.94219 2.85964 8.00363 3.18596 7.99963 3.51475V10.4566C8.00635 10.9195 7.92079 11.3791 7.74792 11.8087C7.57506 12.2383 7.31835 12.6293 6.99272 12.959C6.66708 13.2887 6.27901 13.5506 5.85108 13.7293C5.42315 13.908 4.96389 14 4.5 14C4.03611 14 3.57685 13.908 3.14892 13.7293C2.72099 13.5506 2.33292 13.2887 2.00729 12.959C1.68165 12.6293 1.42494 12.2383 1.25208 11.8087C1.07922 11.3791 0.993654 10.9195 1.00037 10.4566V3.96969" stroke="#6D6D6D" stroke-miterlimit="10" stroke-linecap="round"/>
</svg>
