<svg width="13" height="12" viewBox="0 0 13 12" fill="none" xmlns="http://www.w3.org/2000/svg">
<path d="M0.692149 0.16939L11.9892 5.73587C12.0508 5.76623 12.1027 5.81323 12.1389 5.87155C12.1752 5.92986 12.1944 5.99717 12.1944 6.06585C12.1944 6.13452 12.1752 6.20183 12.1389 6.26015C12.1027 6.31846 12.0508 6.36546 11.9892 6.39582L0.691414 11.9623C0.628121 11.9934 0.557225 12.0056 0.487169 11.9976C0.417114 11.9895 0.350852 11.9615 0.296274 11.9168C0.241697 11.8722 0.201104 11.8128 0.179331 11.7457C0.157557 11.6786 0.155521 11.6067 0.173464 11.5385L1.2925 7.31179C1.31064 7.2434 1.34812 7.18169 1.40045 7.13406C1.45278 7.08643 1.51773 7.0549 1.58752 7.04325L6.65004 6.19938C6.68021 6.19438 6.70865 6.18195 6.7328 6.16319C6.75695 6.14444 6.77605 6.11995 6.78835 6.09196L6.8016 6.04782C6.80847 6.00691 6.8013 5.96487 6.78127 5.92854C6.76123 5.89222 6.72951 5.86373 6.69124 5.8477L6.65004 5.83593L1.55957 4.98764C1.48991 4.97587 1.42511 4.94428 1.37292 4.89666C1.32074 4.84904 1.28337 4.7874 1.26528 4.7191L0.173464 0.593902C0.155334 0.525656 0.15723 0.453634 0.178924 0.386436C0.200619 0.319238 0.241195 0.259704 0.295809 0.214943C0.350422 0.170181 0.416765 0.142084 0.486914 0.134007C0.557064 0.125929 0.628056 0.138213 0.691414 0.16939H0.692149Z" fill="black"/>
</svg>
